<svg width="50" height="50" viewBox="0 0 50 50" fill="none" xmlns="http://www.w3.org/2000/svg">
<rect width="50" height="50" rx="25" fill="#5C4EC9" fill-opacity="0.05"/>
<path d="M30 23.75C32.075 23.75 33.7375 22.075 33.7375 20C33.7375 17.925 32.075 16.25 30 16.25C27.925 16.25 26.25 17.925 26.25 20C26.25 22.075 27.925 23.75 30 23.75ZM20 23.75C22.075 23.75 23.7375 22.075 23.7375 20C23.7375 17.925 22.075 16.25 20 16.25C17.925 16.25 16.25 17.925 16.25 20C16.25 22.075 17.925 23.75 20 23.75ZM20 26.25C17.0875 26.25 11.25 27.7125 11.25 30.625V32.5C11.25 33.1875 11.8125 33.75 12.5 33.75H27.5C28.1875 33.75 28.75 33.1875 28.75 32.5V30.625C28.75 27.7125 22.9125 26.25 20 26.25ZM30 26.25C29.6375 26.25 29.225 26.275 28.7875 26.3125C28.8125 26.325 28.825 26.35 28.8375 26.3625C30.2625 27.4 31.25 28.7875 31.25 30.625V32.5C31.25 32.9375 31.1625 33.3625 31.025 33.75H37.5C38.1875 33.75 38.75 33.1875 38.75 32.5V30.625C38.75 27.7125 32.9125 26.25 30 26.25Z" fill="#98C93A"/>
</svg>
