<svg width="25" height="26" viewBox="0 0 25 26" fill="none" xmlns="http://www.w3.org/2000/svg">
<path d="M21.0939 13.211C21.0978 13.0704 21.0978 12.9298 21.0939 12.7892L22.5509 10.9689C22.6273 10.8733 22.6802 10.7611 22.7053 10.6413C22.7304 10.5216 22.727 10.3976 22.6954 10.2794C22.4561 9.3817 22.0989 8.51969 21.6329 7.71593C21.5719 7.61077 21.4871 7.52131 21.3854 7.45469C21.2836 7.38806 21.1678 7.3461 21.047 7.33214L18.7306 7.07432C18.6342 6.97276 18.5366 6.87511 18.4376 6.78136L18.1642 4.45909C18.1501 4.3382 18.108 4.22227 18.0412 4.12055C17.9744 4.01882 17.8847 3.9341 17.7794 3.87315C16.9757 3.40758 16.1136 3.05093 15.2159 2.81261C15.0977 2.78102 14.9737 2.77765 14.854 2.80275C14.7342 2.82786 14.622 2.88074 14.5265 2.95714L12.711 4.40636H12.2892L10.4689 2.95225C10.3733 2.87586 10.2611 2.82297 10.1413 2.79787C10.0216 2.77277 9.89761 2.77614 9.7794 2.80772C8.8817 3.04701 8.01969 3.40429 7.21593 3.87022C7.11077 3.93128 7.02131 4.01605 6.95469 4.11777C6.88806 4.21949 6.8461 4.33536 6.83214 4.45616L6.57432 6.77647C6.47276 6.87348 6.37511 6.97113 6.28136 7.06944L3.95909 7.33604C3.8382 7.35011 3.72227 7.39222 3.62055 7.45902C3.51882 7.52582 3.4341 7.61547 3.37315 7.72081C2.90767 8.52468 2.55073 9.38667 2.31163 10.2843C2.28018 10.4026 2.27696 10.5266 2.30224 10.6463C2.32751 10.7661 2.38057 10.8782 2.45714 10.9737L3.90636 12.7892V13.211L2.45225 15.0314C2.37586 15.1269 2.32297 15.2391 2.29787 15.3589C2.27277 15.4786 2.27614 15.6026 2.30772 15.7208C2.54701 16.6185 2.90429 17.4805 3.37022 18.2843C3.43128 18.3894 3.51605 18.4789 3.61777 18.5455C3.71949 18.6122 3.83536 18.6541 3.95616 18.6681L6.27257 18.9259C6.36957 19.0274 6.46723 19.1251 6.56554 19.2189L6.83604 21.5411C6.85011 21.662 6.89222 21.7779 6.95902 21.8797C7.02582 21.9814 7.11547 22.0661 7.22081 22.1271C8.02468 22.5925 8.88667 22.9495 9.78429 23.1886C9.90257 23.22 10.0266 23.2232 10.1463 23.198C10.2661 23.1727 10.3782 23.1196 10.4737 23.0431L12.2892 21.5939C12.4298 21.5978 12.5704 21.5978 12.711 21.5939L14.5314 23.0509C14.6269 23.1273 14.7391 23.1802 14.8589 23.2053C14.9786 23.2304 15.1026 23.227 15.2208 23.1954C16.1187 22.9566 16.9807 22.5993 17.7843 22.1329C17.8894 22.0719 17.9789 21.9871 18.0455 21.8854C18.1122 21.7836 18.1541 21.6678 18.1681 21.547L18.4259 19.2306C18.5274 19.1342 18.6251 19.0366 18.7189 18.9376L21.0411 18.6642C21.162 18.6501 21.2779 18.608 21.3797 18.5412C21.4814 18.4744 21.5661 18.3847 21.6271 18.2794C22.0925 17.4755 22.4495 16.6135 22.6886 15.7159C22.72 15.5976 22.7232 15.4736 22.698 15.3539C22.6727 15.2341 22.6196 15.122 22.5431 15.0265L21.0939 13.211ZM12.5001 16.9064C11.7275 16.9064 10.9723 16.6773 10.3299 16.248C9.68753 15.8188 9.18686 15.2087 8.8912 14.495C8.59555 13.7812 8.51819 12.9958 8.66891 12.238C8.81964 11.4803 9.19167 10.7843 9.73797 10.238C10.2843 9.69167 10.9803 9.31964 11.738 9.16891C12.4958 9.01819 13.2812 9.09555 13.995 9.3912C14.7087 9.68686 15.3188 10.1875 15.748 10.8299C16.1773 11.4723 16.4064 12.2275 16.4064 13.0001C16.4064 14.0361 15.9948 15.0297 15.2622 15.7622C14.5297 16.4948 13.5361 16.9064 12.5001 16.9064Z" fill="#222222"/>
</svg>
