<svg width="50" height="50" viewBox="0 0 50 50" fill="none" xmlns="http://www.w3.org/2000/svg">
<rect width="50" height="50" rx="25" fill="#5C4EC9" fill-opacity="0.05"/>
<path d="M27.5 18.75H22.5C21.125 18.75 20 19.875 20 21.25V27.5C20 28.1875 20.5625 28.75 21.25 28.75H22.5V36.25C22.5 36.9375 23.0625 37.5 23.75 37.5H26.25C26.9375 37.5 27.5 36.9375 27.5 36.25V28.75H28.75C29.4375 28.75 30 28.1875 30 27.5V21.25C30 19.875 28.875 18.75 27.5 18.75Z" fill="#98C93A"/>
<path d="M25 17.5C26.3807 17.5 27.5 16.3807 27.5 15C27.5 13.6193 26.3807 12.5 25 12.5C23.6193 12.5 22.5 13.6193 22.5 15C22.5 16.3807 23.6193 17.5 25 17.5Z" fill="#98C93A"/>
</svg>
