<svg width="50" height="50" viewBox="0 0 50 50" fill="none" xmlns="http://www.w3.org/2000/svg">
<rect width="50" height="50" rx="25" fill="#5C4EC9" fill-opacity="0.05"/>
<path d="M38.5 14.5H11.5C10.6717 14.5 10 15.1717 10 16V34C10 34.8283 10.6717 35.5 11.5 35.5H38.5C39.3283 35.5 40 34.8283 40 34V16C40 15.1717 39.3283 14.5 38.5 14.5ZM18.25 28.3694V29.125C18.25 29.3322 18.0822 29.5 17.875 29.5H17.125C16.9178 29.5 16.75 29.3322 16.75 29.125V28.3614C16.2208 28.3342 15.7061 28.1495 15.2795 27.8294C15.0967 27.692 15.0873 27.4183 15.2528 27.2603L15.8036 26.7348C15.9334 26.6111 16.1266 26.6055 16.2784 26.7006C16.4598 26.8141 16.6656 26.875 16.8794 26.875H18.197C18.5017 26.875 18.7502 26.5975 18.7502 26.2567C18.7502 25.9778 18.5809 25.7322 18.3391 25.66L16.2297 25.0272C15.3583 24.7656 14.7494 23.9294 14.7494 22.9933C14.7494 21.8439 15.6423 20.9102 16.7495 20.8806V20.125C16.7495 19.9178 16.9173 19.75 17.1245 19.75H17.8745C18.0817 19.75 18.2495 19.9178 18.2495 20.125V20.8886C18.7788 20.9158 19.2934 21.1 19.72 21.4206C19.9028 21.558 19.9122 21.8317 19.7467 21.9897L19.1959 22.5152C19.0661 22.6389 18.873 22.6445 18.7211 22.5494C18.5397 22.4355 18.3339 22.375 18.1202 22.375H16.8025C16.4978 22.375 16.2494 22.6525 16.2494 22.9933C16.2494 23.2722 16.4186 23.5178 16.6605 23.59L18.7698 24.2228C19.6412 24.4844 20.2502 25.3206 20.2502 26.2567C20.2502 27.4066 19.3572 28.3398 18.25 28.3694ZM29.5 27.625C29.5 27.8322 29.3322 28 29.125 28H23.875C23.6678 28 23.5 27.8322 23.5 27.625V26.875C23.5 26.6678 23.6678 26.5 23.875 26.5H29.125C29.3322 26.5 29.5 26.6678 29.5 26.875V27.625ZM37 27.625C37 27.8322 36.8322 28 36.625 28H32.875C32.6678 28 32.5 27.8322 32.5 27.625V26.875C32.5 26.6678 32.6678 26.5 32.875 26.5H36.625C36.8322 26.5 37 26.6678 37 26.875V27.625ZM37 23.125C37 23.3322 36.8322 23.5 36.625 23.5H23.875C23.6678 23.5 23.5 23.3322 23.5 23.125V22.375C23.5 22.1678 23.6678 22 23.875 22H36.625C36.8322 22 37 22.1678 37 22.375V23.125Z" fill="#98C93A"/>
</svg>
