<svg width="30" height="30" viewBox="0 0 30 30" fill="none" xmlns="http://www.w3.org/2000/svg">
<path d="M15.0001 9.37498C13.8876 9.37498 12.8 9.70488 11.875 10.323C10.95 10.941 10.229 11.8195 9.80328 12.8474C9.37754 13.8752 9.26614 15.0062 9.48318 16.0974C9.70023 17.1885 10.236 18.1908 11.0226 18.9775C11.8093 19.7641 12.8116 20.2999 13.9027 20.5169C14.9939 20.7339 16.1249 20.6225 17.1527 20.1968C18.1805 19.7711 19.059 19.0501 19.6771 18.1251C20.2952 17.2 20.6251 16.1125 20.6251 15C20.6236 13.5086 20.0304 12.0788 18.9759 11.0242C17.9213 9.96966 16.4915 9.37653 15.0001 9.37498ZM15.0001 18.75C14.2584 18.75 13.5334 18.53 12.9167 18.118C12.3 17.7059 11.8194 17.1203 11.5356 16.435C11.2517 15.7498 11.1775 14.9958 11.3222 14.2684C11.4669 13.541 11.824 12.8728 12.3484 12.3483C12.8729 11.8239 13.5411 11.4667 14.2685 11.322C14.9959 11.1773 15.7499 11.2516 16.4352 11.5354C17.1204 11.8193 17.7061 12.2999 18.1181 12.9166C18.5302 13.5333 18.7501 14.2583 18.7501 15C18.7501 15.9945 18.355 16.9484 17.6518 17.6516C16.9485 18.3549 15.9947 18.75 15.0001 18.75ZM27.8837 12.5637C27.8576 12.4316 27.8034 12.3068 27.7247 12.1976C27.646 12.0884 27.5448 11.9974 27.4278 11.9308L23.9321 9.93865L23.9181 5.99881C23.9176 5.86312 23.8878 5.72914 23.8305 5.60613C23.7733 5.48311 23.69 5.37399 23.5864 5.28631C22.3184 4.21369 20.8581 3.3917 19.2833 2.86404C19.1593 2.82206 19.0279 2.80653 18.8975 2.81844C18.7671 2.83035 18.6406 2.86943 18.5263 2.93318L15.0001 4.90427L11.4704 2.92967C11.356 2.86556 11.2294 2.82618 11.0988 2.81406C10.9682 2.80195 10.8365 2.81738 10.7122 2.85935C9.13856 3.39087 7.67997 4.21599 6.41377 5.29099C6.31038 5.37855 6.22719 5.48748 6.16993 5.61028C6.11268 5.73308 6.08273 5.86683 6.08213 6.00232L6.06455 9.94568L2.56885 11.9379C2.4519 12.0044 2.35065 12.0954 2.27199 12.2046C2.19333 12.3138 2.1391 12.4387 2.11299 12.5707C1.79307 14.1784 1.79307 15.8333 2.11299 17.441C2.1391 17.573 2.19333 17.6979 2.27199 17.8071C2.35065 17.9162 2.4519 18.0072 2.56885 18.0738L6.06455 20.066L6.07862 24.0058C6.07904 24.1415 6.10891 24.2755 6.16617 24.3985C6.22343 24.5215 6.30671 24.6306 6.41026 24.7183C7.67831 25.791 9.13856 26.6129 10.7134 27.1406C10.8374 27.1826 10.9688 27.1981 11.0992 27.1862C11.2296 27.1743 11.3561 27.1352 11.4704 27.0715L15.0001 25.0957L18.5298 27.0703C18.6695 27.1481 18.8269 27.1885 18.9868 27.1875C19.0892 27.1874 19.1909 27.1708 19.288 27.1383C20.8615 26.6075 22.32 25.7831 23.5864 24.709C23.6898 24.6214 23.773 24.5125 23.8303 24.3897C23.8875 24.2669 23.9175 24.1331 23.9181 23.9976L23.9356 20.0543L27.4314 18.0621C27.5483 17.9955 27.6495 17.9045 27.7282 17.7953C27.8069 17.6861 27.8611 17.5613 27.8872 17.4293C28.2054 15.8229 28.2042 14.1696 27.8837 12.5637ZM26.1259 16.6547L22.7778 18.559C22.6311 18.6424 22.5097 18.7638 22.4263 18.9105C22.3583 19.0277 22.2868 19.1519 22.2142 19.2691C22.1212 19.4169 22.0716 19.5879 22.0712 19.7625L22.0536 23.5418C21.1537 24.2485 20.1511 24.8136 19.0806 25.2176L15.7032 23.3355C15.563 23.2579 15.4053 23.2176 15.245 23.2183H14.7962C14.6285 23.2141 14.4627 23.2546 14.3157 23.3355L10.936 25.2222C9.8632 24.8214 8.85786 24.259 7.95479 23.5547L7.9419 19.7812C7.94132 19.6063 7.8918 19.435 7.79893 19.2867C7.72627 19.1695 7.65479 19.0523 7.58799 18.9281C7.50517 18.7791 7.38372 18.6553 7.23643 18.5695L3.88487 16.6605C3.71143 15.5634 3.71143 14.4459 3.88487 13.3488L7.22705 11.441C7.37375 11.3576 7.4952 11.2361 7.57862 11.0894C7.64658 10.9722 7.71807 10.848 7.79073 10.7308C7.88373 10.5831 7.93327 10.4121 7.93369 10.2375L7.95127 6.45818C8.85119 5.75148 9.85376 5.18637 10.9243 4.7824L14.297 6.66443C14.4438 6.74579 14.6097 6.78626 14.7774 6.78162H15.204C15.3717 6.78581 15.5375 6.74537 15.6845 6.66443L19.0642 4.77771C20.137 5.17858 21.1423 5.74092 22.0454 6.44529L22.0583 10.2187C22.0589 10.3937 22.1084 10.565 22.2013 10.7133C22.2739 10.8304 22.3454 10.9476 22.4122 11.0719C22.495 11.2208 22.6165 11.3447 22.7638 11.4304L26.1153 13.3394C26.2911 14.4374 26.2931 15.5561 26.1212 16.6547H26.1259Z" fill="#222222"/>
</svg>
