<svg width="19" height="21" viewBox="0 0 19 21" fill="none" xmlns="http://www.w3.org/2000/svg">
<path d="M3.25 6.8335C3.25 5.17589 3.90848 3.58618 5.08058 2.41408C6.25269 1.24198 7.8424 0.583496 9.5 0.583496C11.1576 0.583496 12.7473 1.24198 13.9194 2.41408C15.0915 3.58618 15.75 5.17589 15.75 6.8335V9.87204C15.75 10.6043 15.9875 11.3168 16.4271 11.9033L18.5625 14.7502C18.7366 14.9823 18.8426 15.2583 18.8687 15.5473C18.8947 15.8363 18.8398 16.1269 18.71 16.3864C18.5803 16.646 18.3808 16.8643 18.134 17.0168C17.8871 17.1694 17.6027 17.2502 17.3125 17.2502H1.6875C1.39733 17.2502 1.11288 17.1694 0.866046 17.0168C0.619208 16.8643 0.419728 16.646 0.289958 16.3864C0.160188 16.1269 0.105255 15.8363 0.131314 15.5473C0.157374 15.2583 0.263396 14.9823 0.437501 14.7502L2.57292 11.9033C3.01242 11.3173 3.25 10.6045 3.25 9.87204V6.8335ZM9.5 20.896C8.71479 20.8959 7.95058 20.6424 7.32094 20.1732C6.69131 19.704 6.22988 19.0442 6.00521 18.2918H12.9948C12.7701 19.0442 12.3087 19.704 11.6791 20.1732C11.0494 20.6424 10.2852 20.8959 9.5 20.896Z" fill="#222222"/>
</svg>
